<svg width="57" height="44" viewBox="0 0 57 44" fill="none" xmlns="http://www.w3.org/2000/svg">
<path d="M38.4378 14.7902L32.809 20.419L31.6428 21.5867L24.8463 14.7902L15.6561 24.1301L14.3357 25.4505L0.898438 25.2948L1.58108 24.6122L2.06462 24.1301L11.2533 14.7902L12.9031 13.1405L13.5857 12.4578L18.0498 7.99371L22.5139 3.52959L23.1966 2.84695L24.8463 1.19873L38.4378 14.7902Z" fill="#FF7900"/>
<path d="M18.1426 29.2111L23.7729 23.5808L24.9391 22.4146L31.734 29.2111L40.9243 19.8712L42.2446 18.5493L55.6819 18.705L54.9993 19.3876L54.5157 19.8712L45.327 29.2111L43.6773 30.8608L42.9946 31.542L38.5305 36.0061L34.0664 40.4702L33.3838 41.1529L31.734 42.8011L18.1426 29.2111Z" fill="white"/>
</svg>
